<svg version="1.1" id="Layer_1" xmlns="http://www.w3.org/2000/svg" xmlns:xlink="http://www.w3.org/1999/xlink" x="0px" y="0px"
	 width="100%" viewBox="0 0 512 512" enable-background="new 0 0 512 512" xml:space="preserve">
<path fill="#000000" opacity="0.000000" stroke="none" 
	d="
M299.000000,513.000000 
	C199.357529,513.000000 100.215050,513.000000 1.036289,513.000000 
	C1.036289,342.399170 1.036289,171.798325 1.036289,1.098744 
	C171.559158,1.098744 342.118378,1.098744 512.838806,1.098744 
	C512.838806,171.666550 512.838806,342.333252 512.838806,513.000000 
	C441.798309,513.000000 370.649139,513.000000 299.000000,513.000000 
M373.571747,206.087189 
	C344.318817,213.998764 315.061981,221.895889 285.813934,229.825562 
	C248.208054,240.021210 210.621216,250.287415 173.000336,260.427368 
	C161.132462,263.626129 149.409897,267.880798 136.805649,266.956482 
	C112.305519,265.159821 95.929764,249.960007 98.400993,224.555832 
	C99.286453,215.453323 103.133018,206.634308 105.687485,197.702896 
	C106.148277,196.091766 106.898445,194.563385 107.515007,192.996796 
	C106.158096,192.995651 105.590904,193.335480 105.227364,193.826172 
	C95.919083,206.390198 86.144768,218.644638 77.472687,231.634659 
	C68.007942,245.811966 60.357548,261.064117 57.560165,278.149414 
	C55.349087,291.653839 56.345150,304.873230 67.378372,314.570160 
	C80.685295,326.265381 96.538658,330.627441 114.255249,328.486908 
	C134.921616,325.989960 153.697174,317.741913 172.507141,309.676605 
	C222.242386,288.351105 271.888336,266.817291 321.563324,245.351334 
	C364.816193,226.660553 408.065033,207.960358 451.290649,189.206726 
	C453.056793,188.440475 454.567444,187.085342 456.197113,186.004593 
	C455.903931,185.326736 455.610718,184.648895 455.317505,183.971054 
	C428.334290,191.282608 401.351044,198.594162 373.571747,206.087189 
z"/>
<path fill="#1B1B1B" opacity="1.000000" stroke="none" 
	d="
M373.969788,205.996460 
	C401.351044,198.594162 428.334290,191.282608 455.317505,183.971054 
	C455.610718,184.648895 455.903931,185.326736 456.197113,186.004593 
	C454.567444,187.085342 453.056793,188.440475 451.290649,189.206726 
	C408.065033,207.960358 364.816193,226.660553 321.563324,245.351334 
	C271.888336,266.817291 222.242386,288.351105 172.507141,309.676605 
	C153.697174,317.741913 134.921616,325.989960 114.255249,328.486908 
	C96.538658,330.627441 80.685295,326.265381 67.378372,314.570160 
	C56.345150,304.873230 55.349087,291.653839 57.560165,278.149414 
	C60.357548,261.064117 68.007942,245.811966 77.472687,231.634659 
	C86.144768,218.644638 95.919083,206.390198 105.227364,193.826172 
	C105.590904,193.335480 106.158096,192.995651 107.515007,192.996796 
	C106.898445,194.563385 106.148277,196.091766 105.687485,197.702896 
	C103.133018,206.634308 99.286453,215.453323 98.400993,224.555832 
	C95.929764,249.960007 112.305519,265.159821 136.805649,266.956482 
	C149.409897,267.880798 161.132462,263.626129 173.000336,260.427368 
	C210.621216,250.287415 248.208054,240.021210 285.813934,229.825562 
	C315.061981,221.895889 344.318817,213.998764 373.969788,205.996460 
z"/>
</svg>