<?xml version="1.0" standalone="no"?>
<!DOCTYPE svg PUBLIC "-//W3C//DTD SVG 20010904//EN"
 "http://www.w3.org/TR/2001/REC-SVG-20010904/DTD/svg10.dtd">
<svg version="1.0" xmlns="http://www.w3.org/2000/svg"
 width="512.000000pt" height="512.000000pt" viewBox="0 0 512.000000 512.000000"
 preserveAspectRatio="xMidYMid meet">
<metadata>
Created by potrace 1.14, written by Peter Selinger 2001-2017
</metadata>
<g transform="translate(0.000000,512.000000) scale(0.100000,-0.100000)"
fill="#000000" stroke="none">
<path d="M4480 3269 c-36 -10 -117 -32 -180 -49 -107 -30 -164 -45 -200 -54
-8 -3 -175 -48 -370 -101 -195 -53 -413 -112 -485 -132 -71 -19 -179 -48 -240
-65 -60 -16 -157 -42 -215 -58 -58 -15 -190 -51 -295 -80 -104 -28 -212 -57
-240 -65 -27 -7 -192 -52 -366 -99 -443 -120 -471 -125 -602 -100 -204 39
-321 178 -319 378 2 101 16 162 71 306 l21 55 -26 -30 c-14 -16 -58 -73 -98
-125 -341 -447 -451 -792 -319 -1002 52 -84 200 -171 328 -193 167 -28 331 5
640 130 128 52 1017 433 1125 482 30 14 65 29 77 34 23 8 612 263 648 279 11
5 162 71 335 145 173 75 330 143 348 151 17 7 47 21 65 29 17 8 106 46 197 85
91 39 169 75 173 80 17 16 -10 16 -73 -1z"/>
</g>
</svg>
